<svg width="16" height="6" viewBox="0 0 16 6" fill="none" xmlns="http://www.w3.org/2000/svg">
<g clip-path="url(#clip0_11188_2)">
<path d="M7.78495 0L6.19178 4.65633H4.98125L3.90987 1.50332L2.8037 4.65633H1.60013L0 0H1.16879L2.268 3.27273L3.41592 0H4.45948L5.5726 3.29935L6.70661 0H7.78495Z" fill="#141517"/>
<path d="M9.56861 1.02441C10.1484 1.02441 10.5936 1.15745 10.9044 1.42353C11.2151 1.68517 11.3705 2.08206 11.3705 2.61421V4.65635H10.3548V4.21066C10.1507 4.54325 9.77038 4.70956 9.2138 4.70956C8.92625 4.70956 8.67578 4.66301 8.46245 4.56987C8.25372 4.47673 8.09372 4.34814 7.98242 4.18407C7.87109 4.01997 7.81543 3.83372 7.81543 3.62531C7.81543 3.29271 7.94531 3.03106 8.20504 2.84037C8.46941 2.64969 8.87522 2.55435 9.4225 2.55435H10.2852C10.2852 2.32818 10.2133 2.15523 10.0695 2.0355C9.92575 1.91133 9.71008 1.84925 9.4225 1.84925C9.22309 1.84925 9.02596 1.88029 8.83118 1.94237C8.641 2.00002 8.47867 2.07985 8.34416 2.18184L7.95457 1.45679C8.15864 1.31931 8.40215 1.21288 8.68507 1.1375C8.97262 1.06211 9.26714 1.02441 9.56861 1.02441ZM9.48513 4.01111C9.67064 4.01111 9.8353 3.97121 9.97908 3.89138C10.1229 3.80711 10.2249 3.68517 10.2852 3.52551V3.15968H9.54079C9.09554 3.15968 8.87292 3.29937 8.87292 3.57875C8.87292 3.71179 8.92625 3.81821 9.03292 3.89803C9.14424 3.97341 9.29498 4.01111 9.48513 4.01111Z" fill="#141517"/>
<path d="M15.9999 1.07764L14.3094 4.87585C14.1377 5.28827 13.9244 5.57875 13.6693 5.74727C13.4188 5.91579 13.1151 6.00003 12.7579 6.00003C12.5631 6.00003 12.3706 5.9712 12.1805 5.91355C11.9903 5.8559 11.8349 5.77609 11.7144 5.67409L12.1109 4.93574C12.1944 5.00668 12.2895 5.06212 12.3962 5.10202C12.5075 5.14195 12.6165 5.16189 12.7231 5.16189C12.8715 5.16189 12.9921 5.1264 13.0849 5.05547C13.1777 4.98895 13.2612 4.87585 13.3354 4.71622L13.3493 4.68295L11.7283 1.07764H12.8484L13.8989 3.50559L14.9563 1.07764H15.9999Z" fill="#141517"/>
</g>
<defs>
<clipPath id="clip0_11188_2">
<rect width="16" height="6" fill="white"/>
</clipPath>
</defs>
</svg>
