<svg xmlns="http://www.w3.org/2000/svg" xmlns:xlink="http://www.w3.org/1999/xlink"><symbol id="icon-check" viewBox="0 0 14 12">
<path fill-rule="evenodd" clip-rule="evenodd" d="M13.6138 0.210585C14.0498 0.549578 14.1285 1.17784 13.7895 1.61385L6.01453 11.6138C5.84138 11.8365 5.58223 11.9758 5.30094 11.9972C5.01966 12.0186 4.74242 11.9202 4.53757 11.7262L0.312502 7.72623C-0.0885582 7.34653 -0.105878 6.71361 0.273818 6.31255C0.653514 5.91149 1.28644 5.89417 1.6875 6.27386L5.11216 9.51608L12.2105 0.386246C12.5495 -0.0497617 13.1778 -0.128408 13.6138 0.210585Z"/>
</symbol><symbol id="icon-phone" viewBox="0 0 30 30">
<path d="M7.3961 8.62432C7.31155 7.42623 7.57729 6.24606 8.2809 5.29684C8.8909 4.43632 9.68511 3.96636 10.6424 3.69172C11.4487 3.4525 11.9772 3.74561 12.2097 4.64204C12.5419 5.98224 13.016 7.3225 13.1881 8.73361C13.2425 9.35485 12.8408 10.2332 12.406 10.6856C11.3158 11.7589 11.5423 12.5399 12.3698 14.1643C12.6264 14.6881 13.0341 15.5934 13.8283 16.7919C14.6558 17.9992 15.0936 18.6472 16.1566 18.0975C17.3374 17.5035 18.198 17.8855 19.0889 18.8444C19.6928 19.5369 20.3572 20.1318 20.9612 20.8243C21.8339 21.8542 21.7946 22.5641 21.1121 23.2915C19.8831 24.6309 17.8538 25.0736 16.3439 24.1766C15.5104 23.6881 14.6799 23.0487 14.0186 22.303C11.1045 18.9825 9.00266 15.1212 7.73735 10.7632C7.53502 10.0265 7.4414 9.28104 7.3961 8.62432Z" stroke-width="2" stroke-miterlimit="10"/>
</symbol></svg>